<svg width="384" height="249" viewBox="0 0 384 249" fill="none" xmlns="http://www.w3.org/2000/svg">
<path d="M214.641 100.307C208.761 94.5068 200.821 90.9668 192.181 90.9668C191.751 90.9668 191.321 90.9768 190.881 90.9968C181.941 91.3568 173.661 95.1268 167.571 101.587C161.511 108.027 158.371 116.347 158.731 125.017C159.111 134.117 163.001 142.507 169.681 148.647C176.051 154.497 184.191 157.527 192.581 157.157C201.721 156.767 210.131 152.867 216.251 146.187C222.101 139.797 225.111 131.617 224.741 123.147C224.341 114.137 220.521 106.097 214.641 100.307Z" fill="white"/>
<path d="M276.414 111.457C275.784 110.537 274.664 109.427 271.614 109.077C267.584 108.607 263.414 108.117 259.274 107.497C256.984 107.157 254.774 105.457 253.764 103.287C252.524 100.587 251.324 97.7168 250.204 94.7368C249.384 92.5568 249.764 89.8468 251.134 87.9968C252.704 85.8868 254.324 83.8068 255.894 81.7868C256.894 80.4968 257.894 79.2068 258.884 77.9068C261.354 74.6668 261.174 71.5568 258.324 68.6568C254.494 64.7568 250.704 60.9568 247.044 57.3568C244.104 54.4568 241.054 54.3068 237.724 56.8868L236.734 57.6568C233.884 59.8668 230.944 62.1468 228.084 64.4168C225.164 66.7468 222.344 66.2068 220.494 65.3468C218.004 64.1868 215.544 63.1668 213.174 62.3068C210.214 61.2268 208.474 58.9968 208.144 55.8668C207.724 51.9468 207.254 47.7368 206.604 43.5268C206.114 40.3368 204.584 38.6268 201.464 37.8168C201.314 37.7768 201.164 37.7268 201.034 37.6868H182.134C180.214 38.2868 178.924 39.1568 177.984 40.4368C177.124 41.6068 176.894 43.1868 176.594 45.6568C176.544 46.0368 176.494 46.4068 176.444 46.7868C176.294 47.9568 176.154 49.1468 176.014 50.3268C175.774 52.3268 175.534 54.3868 175.204 56.4568C174.844 58.7368 173.164 60.9468 171.014 61.9368C168.354 63.1668 165.484 64.3668 162.484 65.4968C160.294 66.3168 157.584 65.9468 155.744 64.5668C153.744 63.0868 151.774 61.5468 149.874 60.0668C148.434 58.9368 146.994 57.8168 145.544 56.7168C142.364 54.3068 139.324 54.5168 136.484 57.3268C132.094 61.6868 128.464 65.3268 125.054 68.7668C122.374 71.4968 122.174 74.6868 124.494 77.7468C127.264 81.3968 129.824 84.6868 132.294 87.7868C133.524 89.3268 134.674 91.8668 133.194 95.1768C132.194 97.3868 131.054 100.017 130.064 102.727C129.344 104.707 127.664 107.167 123.764 107.627L121.924 107.837C118.184 108.277 114.314 108.727 110.604 109.347C107.714 109.837 105.594 112.377 105.554 115.387C105.504 119.627 105.514 123.957 105.524 128.147V131.917C105.544 136.127 107.744 138.597 111.904 139.077C115.644 139.507 119.984 140.017 124.254 140.657C126.884 141.057 128.904 143.077 129.744 144.897C130.454 146.427 131.084 147.957 131.694 149.437C132.184 150.617 132.664 151.807 133.184 152.977C134.674 156.297 133.524 158.827 132.294 160.357C129.534 163.817 126.854 167.307 124.604 170.267C122.134 173.497 122.324 176.607 125.174 179.497C129.254 183.627 132.954 187.327 136.464 190.807C139.314 193.627 142.374 193.837 145.544 191.427C148.104 189.487 151.474 186.917 154.814 184.197C157.674 181.857 160.724 181.527 163.894 183.187C165.904 184.247 168.154 185.067 170.284 185.817C172.354 186.547 174.924 188.257 175.354 192.287C175.794 196.417 176.284 200.467 176.834 204.327C177.314 207.757 178.824 209.497 182.044 210.337C182.194 210.377 182.334 210.427 182.474 210.467H201.334C203.334 209.817 204.594 208.977 205.494 207.737C206.404 206.477 206.634 204.687 206.914 202.437L207.024 201.547C207.394 198.747 207.824 195.427 208.164 192.127C208.484 189.107 210.154 186.967 212.994 185.917C215.384 185.047 217.904 183.997 220.494 182.797C222.344 181.937 225.164 181.407 228.084 183.737C230.864 185.947 233.884 188.307 237.844 191.357C241.064 193.837 244.154 193.647 247.034 190.807C251.234 186.667 254.924 182.967 258.314 179.507C261.164 176.597 261.354 173.487 258.894 170.247L258.434 169.647C256.204 166.717 253.894 163.687 251.544 160.827C249.444 158.267 249.124 155.407 250.614 152.337C251.554 150.387 252.454 148.187 253.364 145.597C254.424 142.607 256.664 140.847 259.824 140.517C263.874 140.087 267.914 139.587 271.834 139.037C275.244 138.547 276.984 137.037 277.834 133.807C277.874 133.647 277.914 133.507 277.964 133.367V114.777C277.854 114.527 277.754 114.267 277.644 114.017C277.234 113.027 276.844 112.077 276.414 111.457ZM223.644 152.937C215.714 161.587 204.844 166.637 193.024 167.147C192.424 167.177 191.824 167.187 191.224 167.187C180.804 167.187 170.814 163.257 162.934 156.017C154.284 148.067 149.244 137.207 148.754 125.427C148.274 114.047 152.384 103.147 160.304 94.7368C168.194 86.3568 178.914 81.4768 190.484 81.0068C213.834 80.0368 233.674 98.7568 234.744 122.707C234.774 123.327 234.784 123.947 234.784 124.557C234.784 135.037 230.864 145.047 223.644 152.937Z" fill="white"/>
<path d="M370.749 99.6768C367.069 95.5968 363.449 91.4568 359.659 87.4868C333.019 59.5368 303.379 35.5368 268.399 18.7368C241.219 5.67676 212.759 -1.62324 182.369 0.306761C155.269 2.01676 130.169 10.5468 106.399 23.2468C66.9791 44.3268 34.3791 73.6268 6.0491 107.917C-2.2409 117.957 -2.0409 131.237 6.8391 141.177C17.6391 153.267 28.5591 165.327 40.2791 176.507C66.8591 201.827 96.4291 222.857 130.859 236.327C155.159 245.827 180.319 249.867 206.359 247.487C233.359 245.007 258.259 235.907 281.739 222.647C314.679 204.037 342.799 179.537 368.009 151.527C374.229 144.617 381.049 138.057 383.469 128.567V119.567C381.379 111.547 376.089 105.597 370.749 99.6768ZM287.959 135.547L287.489 136.557C287.449 136.627 287.419 136.687 287.379 136.757C285.439 143.597 280.429 147.917 273.229 148.937C269.659 149.437 265.989 149.897 262.299 150.307C261.589 152.217 260.879 153.947 260.139 155.557C262.299 158.217 264.369 160.937 266.379 163.587L266.839 164.187C272.369 171.437 271.839 179.997 265.449 186.507C262.019 190.007 258.289 193.737 254.059 197.917C247.649 204.247 238.889 204.787 231.739 199.287C228.329 196.657 225.609 194.537 223.139 192.577C221.369 193.367 219.629 194.087 217.939 194.747C217.619 197.627 217.259 200.427 216.939 202.857L216.829 203.687C216.459 206.617 215.999 210.257 213.599 213.587C211.289 216.787 207.979 218.977 203.459 220.277L202.779 220.467H180.299L179.299 219.997C179.229 219.967 179.159 219.937 179.089 219.897C172.259 217.957 167.939 212.937 166.929 205.727C166.429 202.187 165.969 198.507 165.559 194.747C163.889 194.137 162.089 193.437 160.329 192.587C157.139 195.167 154.009 197.567 151.579 199.397C144.479 204.777 135.789 204.197 129.429 197.917C125.889 194.417 122.169 190.687 118.049 186.517C111.639 180.017 111.099 171.467 116.649 164.197C118.639 161.587 120.959 158.567 123.379 155.507C123.059 154.747 122.749 153.997 122.439 153.247C122.029 152.237 121.629 151.267 121.209 150.327C117.599 149.807 113.959 149.377 110.759 149.017C101.529 147.957 95.5491 141.247 95.5291 131.927V128.177C95.5091 123.947 95.4991 119.577 95.5491 115.267C95.6491 107.407 101.279 100.767 108.949 99.4868C112.909 98.8268 116.899 98.3568 120.759 97.9068L121.209 97.8568C121.919 95.9968 122.669 94.2368 123.369 92.6368C121.189 89.8768 118.939 86.9768 116.529 83.7968C111.159 76.7168 111.709 68.0668 117.929 61.7468C121.359 58.2768 125.019 54.6168 129.429 50.2268C135.779 43.9368 144.479 43.3568 151.579 48.7468C153.069 49.8768 154.539 51.0268 156.019 52.1768C157.459 53.2968 158.939 54.4568 160.409 55.5768C162.189 54.8768 163.909 54.1668 165.539 53.4368C165.739 52.0368 165.899 50.6268 166.079 49.1568C166.219 47.9268 166.369 46.6868 166.529 45.4668L166.659 44.4368C167.019 41.5068 167.469 37.8668 169.909 34.5368C172.309 31.2568 175.639 29.0668 180.099 27.8568L180.739 27.6868H203.179L204.169 28.1468C204.239 28.1768 204.309 28.2068 204.379 28.2468C211.129 30.1468 215.419 35.0168 216.489 42.0168C217.079 45.9168 217.539 49.7668 217.929 53.4068C219.649 54.0668 221.389 54.7868 223.149 55.5668C225.639 53.6068 228.149 51.6568 230.599 49.7568L231.589 48.9868C238.909 43.3168 247.519 43.7968 254.059 50.2368C257.749 53.8668 261.589 57.7068 265.459 61.6468C271.839 68.1568 272.369 76.7068 266.829 83.9768C265.819 85.2968 264.799 86.6068 263.779 87.9268C262.569 89.4768 261.329 91.0768 260.119 92.6768C260.809 94.4468 261.529 96.1768 262.269 97.8268C265.759 98.3268 269.319 98.7368 272.769 99.1468C278.049 99.7568 282.049 101.997 284.659 105.797C285.679 107.287 286.319 108.827 286.879 110.187C287.079 110.667 287.279 111.147 287.489 111.617L287.959 112.617V135.547Z" fill="white"/>
</svg>
