<svg width="231" height="232" viewBox="0 0 231 232" fill="none" xmlns="http://www.w3.org/2000/svg">
<path d="M63.56 0.546753C67.4204 0.991729 71.2869 1.39461 75.1354 1.91175C77.0596 2.17031 78.9718 2.58522 80.8659 3.01216C93.8003 5.93457 101.299 14.1847 103.578 27.0649C106.669 44.5212 106.632 62.0496 103.644 79.518C101.275 93.3723 93.0607 101.809 79.2303 104.25C61.5816 107.365 43.8307 107.467 26.2181 104.154C11.9909 101.478 4.58262 93.3002 1.90675 78.5017C-0.239954 66.5896 -0.330152 54.5572 0.445549 42.5549C0.866472 36.0727 1.78048 29.5423 3.2958 23.2345C5.91154 12.3627 13.2897 5.83235 24.0172 3.33086C29.0984 2.14626 34.3599 1.72534 39.5433 0.961663C40.4994 0.82336 41.4555 0.685056 42.4116 0.546753C49.4651 0.546753 56.5125 0.546753 63.566 0.546753H63.56Z" fill="white"/>
<path d="M42.4047 231.453C38.4721 231.002 34.4553 230.894 30.6249 230.016C25.7001 228.886 20.6911 227.623 16.1271 225.524C8.57451 222.049 4.49757 215.338 2.9161 207.473C1.49097 200.365 0.613046 193.089 0.264281 185.843C-0.252853 175.043 -0.120563 164.202 1.91189 153.504C3.4633 145.332 6.40375 137.894 13.5895 132.939C18.9112 129.271 25.0025 127.641 31.2863 126.89C46.5358 125.068 61.8153 124.911 77.0166 127.311C85.3449 128.622 92.9937 131.526 98.165 138.79C101.971 144.13 103.649 150.305 104.419 156.673C106.265 171.947 106.361 187.244 104.052 202.494C103.649 205.151 102.939 207.785 102.116 210.347C98.3454 222.085 89.494 227.581 78.0148 229.577C73.084 230.437 68.075 230.84 63.1021 231.453H42.3987H42.4047Z" fill="white"/>
<path d="M167.539 231.453C163.6 231.014 159.65 230.69 155.735 230.088C152.783 229.637 149.836 229.006 146.974 228.164C135.35 224.755 129.337 216.432 127.028 204.947C124.713 193.45 124.593 181.802 125.182 170.173C125.507 163.679 126.216 157.148 127.449 150.768C129.987 137.611 138.471 130.293 151.357 127.714C162.837 125.417 174.46 125.224 186.06 125.88C193.125 126.277 200.251 127.094 207.16 128.604C218.302 131.039 225.145 138.417 227.755 149.451C228.94 154.466 229.367 159.656 230.124 164.773C230.299 165.946 230.419 167.13 230.563 168.309V189.054C230.425 190.01 230.275 190.966 230.142 191.923C229.523 196.529 229.174 201.195 228.236 205.735C226.077 216.198 220.587 224.111 210.064 227.623C206.811 228.705 203.426 229.469 200.04 230.046C196.144 230.708 192.181 230.996 188.248 231.447H167.545L167.539 231.453Z" fill="white"/>
<path d="M187.344 63.12C187.344 70.8349 187.344 78.2612 187.338 85.6875C187.338 86.7338 187.368 87.8101 187.182 88.8324C186.31 93.5287 182.347 96.7578 177.609 96.7096C172.87 96.6615 168.944 93.3783 168.336 88.5678C167.981 85.7536 168.126 82.8733 168.114 80.023C168.084 74.4849 168.108 68.9407 168.108 63.126C167.08 63.126 166.28 63.126 165.48 63.126C158.505 63.126 151.529 63.1741 144.554 63.108C139.918 63.0659 136.436 60.5764 135.065 56.5295C133.772 52.7112 134.831 48.3155 138.198 46.0606C140.02 44.8399 142.437 44.0101 144.62 43.9379C152.329 43.6854 160.044 43.8417 168.108 43.8417C168.108 42.9157 168.108 42.1279 168.108 41.3402C168.108 34.2747 168.06 27.2152 168.126 20.1497C168.168 15.3993 171 11.629 175.161 10.5166C179.232 9.42221 183.664 10.9496 185.708 14.5815C186.658 16.2652 187.23 18.3819 187.272 20.3181C187.446 28.0451 187.344 35.784 187.344 43.8417C188.246 43.8417 189.034 43.8417 189.821 43.8417C196.797 43.8417 203.772 43.8237 210.747 43.8417C216.58 43.8597 220.837 47.8224 220.964 53.3004C221.09 58.7544 216.73 63.0478 210.831 63.1019C203.111 63.1681 195.39 63.12 187.344 63.12Z" fill="white"/>
</svg>
