<svg width="232" height="232" viewBox="0 0 232 232" fill="none" xmlns="http://www.w3.org/2000/svg">
<path d="M64.4251 0.546753C68.2855 0.991729 72.152 1.39461 76.0005 1.91175C77.9247 2.17031 79.8369 2.58522 81.731 3.01216C94.6654 5.93457 102.164 14.1847 104.443 27.0649C107.534 44.5212 107.498 62.0496 104.509 79.518C102.14 93.3723 93.9258 101.809 80.0955 104.25C62.4468 107.365 44.6958 107.467 27.0832 104.154C12.856 101.478 5.44773 93.3002 2.77186 78.5017C0.619143 66.5956 0.528944 54.5632 1.30465 42.5609C1.72557 36.0787 2.63957 29.5484 4.15489 23.2405C6.77063 12.3687 14.1488 5.83235 24.8764 3.33687C29.9575 2.15227 35.219 1.73135 40.4024 0.967676C41.3585 0.829373 42.3146 0.691069 43.2707 0.552766C50.3242 0.552766 57.3716 0.552766 64.4251 0.552766V0.546753Z" fill="white"/>
<path d="M188.902 0.697083C192.762 1.14206 196.629 1.54494 200.477 2.06208C202.401 2.32064 204.313 2.73555 206.208 3.16249C219.142 6.0849 226.64 14.335 228.919 27.2152C232.01 44.6715 231.974 62.2 228.986 79.6683C226.616 93.5227 218.402 101.959 204.572 104.401C186.923 107.515 169.172 107.618 151.56 104.304C137.333 101.628 129.924 93.4505 127.248 78.6521C125.096 66.7459 125.005 54.7136 125.781 42.7112C126.202 36.229 127.116 29.6987 128.631 23.3909C131.247 12.519 138.625 5.98268 149.353 3.4872C154.434 2.3026 159.696 1.88168 164.879 1.11801C165.835 0.979702 166.791 0.841399 167.747 0.703096C174.801 0.703096 181.848 0.703096 188.902 0.703096V0.697083Z" fill="white"/>
<path d="M43.2719 231.453C39.3393 231.002 35.3225 230.894 31.4921 230.016C26.5673 228.886 21.5583 227.623 16.9943 225.524C9.4417 222.049 5.36474 215.338 3.78327 207.473C2.35814 200.365 1.48023 193.089 1.13147 185.843C0.614336 175.043 0.74662 164.202 2.77908 153.504C4.33048 145.332 7.27092 137.894 14.4567 132.939C19.7784 129.271 25.8697 127.641 32.1535 126.89C47.403 125.068 62.6824 124.911 77.8838 127.311C86.212 128.622 93.8608 131.526 99.0322 138.79C102.839 144.13 104.516 150.305 105.286 156.673C107.132 171.947 107.228 187.244 104.919 202.494C104.516 205.151 103.807 207.785 102.983 210.347C99.2126 222.085 90.3612 227.581 78.882 229.577C73.9512 230.437 68.9422 230.84 63.9693 231.453H43.2659H43.2719Z" fill="white"/>
<path d="M168.406 231.453C164.467 231.014 160.517 230.69 156.602 230.088C153.65 229.637 150.703 229.006 147.841 228.164C136.218 224.755 130.204 216.432 127.895 204.947C125.58 193.45 125.46 181.802 126.049 170.173C126.374 163.679 127.083 157.148 128.316 150.768C130.854 137.611 139.338 130.293 152.225 127.714C163.704 125.417 175.327 125.224 186.927 125.88C193.992 126.277 201.118 127.094 208.027 128.604C219.169 131.039 226.012 138.417 228.622 149.451C229.807 154.466 230.234 159.656 230.991 164.773C231.166 165.946 231.286 167.13 231.43 168.309V189.054C231.292 190.01 231.142 190.966 231.009 191.923C230.39 196.529 230.041 201.195 229.103 205.735C226.945 216.198 221.454 224.111 210.931 227.623C207.678 228.705 204.293 229.469 200.907 230.046C197.011 230.708 193.048 230.996 189.116 231.447H168.412L168.406 231.453Z" fill="white"/>
</svg>
