<svg width="235" height="232" viewBox="0 0 235 232" fill="none" xmlns="http://www.w3.org/2000/svg">
<path d="M64.347 0.546753C68.2074 0.991729 72.0739 1.39461 75.9223 1.91175C77.8466 2.17031 79.7587 2.58522 81.6529 3.01216C94.5873 5.93457 102.086 14.1847 104.365 27.0649C107.456 44.5212 107.419 62.0496 104.431 79.518C102.062 93.3723 93.8477 101.809 80.0173 104.25C62.3686 107.365 44.6177 107.467 27.0051 104.154C12.7779 101.478 5.36961 93.3002 2.69374 78.5017C0.541018 66.5956 0.450819 54.5632 1.22652 42.5609C1.64744 36.0787 2.56144 29.5484 4.07677 23.2405C6.6925 12.3687 14.0707 5.83235 24.7982 3.33687C29.8794 2.15227 35.1409 1.73135 40.3243 0.967676C41.2804 0.829373 42.2365 0.691069 43.1926 0.552766C50.246 0.552766 57.2935 0.552766 64.347 0.552766V0.546753Z" fill="white"/>
<path d="M43.1938 231.453C39.2612 231.002 35.2443 230.894 31.4139 230.016C26.4891 228.886 21.4801 227.623 16.9161 225.524C9.36357 222.049 5.28663 215.338 3.70516 207.473C2.28004 200.365 1.40211 193.089 1.05334 185.843C0.536211 175.043 0.668495 164.202 2.70095 153.504C4.25236 145.332 7.19281 137.894 14.3786 132.939C19.7002 129.271 25.7916 127.641 32.0754 126.89C47.3248 125.068 62.6044 124.911 77.8057 127.311C86.134 128.622 93.7827 131.526 98.9541 138.79C102.76 144.13 104.438 150.305 105.208 156.673C107.054 171.947 107.15 187.244 104.841 202.494C104.438 205.151 103.729 207.785 102.905 210.347C99.1345 222.085 90.283 227.581 78.8039 229.577C73.873 230.437 68.8641 230.84 63.8912 231.453H43.1878H43.1938Z" fill="white"/>
<path d="M168.328 231.453C164.389 231.014 160.439 230.69 156.524 230.088C153.572 229.637 150.625 229.006 147.763 228.164C136.139 224.755 130.126 216.432 127.817 204.947C125.502 193.45 125.382 181.802 125.971 170.173C126.296 163.679 127.005 157.148 128.238 150.768C130.776 137.611 139.26 130.293 152.147 127.714C163.626 125.417 175.249 125.224 186.849 125.88C193.914 126.277 201.04 127.094 207.949 128.604C219.091 131.039 225.934 138.417 228.544 149.451C229.729 154.466 230.156 159.656 230.913 164.773C231.088 165.946 231.208 167.13 231.352 168.309V189.054C231.214 190.01 231.064 190.966 230.931 191.923C230.312 196.529 229.963 201.195 229.025 205.735C226.866 216.198 221.376 224.111 210.853 227.623C207.6 228.705 204.215 229.469 200.829 230.046C196.933 230.708 192.97 230.996 189.037 231.447H168.334L168.328 231.453Z" fill="white"/>
<path d="M161.902 0.979675C164.259 1.01575 166.051 1.98388 167.5 3.72169C170.41 7.22136 174.156 9.09147 178.72 9.12153C183.146 9.1516 186.838 7.42581 189.779 4.12457C192.731 0.811306 195.046 0.252079 199.153 1.85159C204.601 3.98026 209.568 6.93273 214.078 10.6429C216.688 12.7896 217.463 15.5376 216.363 18.7426C213.296 27.6963 218.407 36.4996 227.662 38.2133C231.107 38.8507 233.044 40.817 233.687 44.2205C234.878 50.5344 234.787 56.8362 233.597 63.138C233.025 66.1747 230.734 68.3394 227.62 68.8145C218.035 70.2757 212.623 79.5059 216.026 88.5918C217.247 91.857 216.495 94.7012 213.813 96.9021C209.478 100.462 204.709 103.3 199.526 105.429C196.399 106.716 193.35 105.916 191.216 103.258C184.8 95.2965 173.928 95.4348 167.728 103.553C165.582 106.367 162.575 107.227 159.28 105.964C153.712 103.829 148.6 100.907 143.964 97.1486C141.054 94.7914 140.302 91.9352 141.739 88.4836C144.493 81.8511 142.371 74.545 136.544 70.6364C134.716 69.4098 132.72 68.6341 130.537 68.3334C126.291 67.7561 124.331 65.886 123.658 61.6167C122.696 55.5193 122.888 49.4279 124.109 43.3787C124.758 40.1676 127.013 38.1953 130.368 37.7443C140.032 36.4515 145.6 27.2814 142.299 18.0932C141.084 14.7138 141.92 11.8575 144.758 9.65671C149.184 6.21115 154.036 3.51724 159.28 1.53289C159.785 1.34047 160.308 1.19615 160.837 1.0819C161.21 0.997715 161.607 1.00974 161.914 0.979675H161.902ZM178.895 35.1526C168.576 35.1526 160.224 43.4629 160.236 53.7093C160.248 64.0099 168.546 72.3021 178.853 72.3081C189.093 72.3141 197.403 63.9438 197.397 53.6372C197.391 43.5049 189.027 35.1526 178.901 35.1526H178.895Z" fill="white"/>
</svg>
